<svg width="5" height="12" viewBox="0 0 5 12" fill="none" xmlns="http://www.w3.org/2000/svg">
<path d="M3.99927 0.666626C3.73405 0.666626 3.4797 0.771983 3.29216 0.959519C3.10463 1.14706 2.99927 1.40141 2.99927 1.66663C2.99927 1.93184 3.10463 2.1862 3.29216 2.37373C3.4797 2.56127 3.73405 2.66663 3.99927 2.66663C4.26449 2.66663 4.51884 2.56127 4.70638 2.37373C4.89391 2.1862 4.99927 1.93184 4.99927 1.66663C4.99927 1.40141 4.89391 1.14706 4.70638 0.959519C4.51884 0.771983 4.26449 0.666626 3.99927 0.666626ZM3.75927 3.84663C2.96594 3.91329 0.79927 5.63996 0.79927 5.63996C0.665937 5.73996 0.705937 5.73329 0.812604 5.91996C0.919271 6.09996 0.905937 6.11329 1.0326 6.02663C1.16594 5.93996 1.38594 5.79996 1.7526 5.57329C3.16594 4.66663 1.97927 6.75996 1.3726 10.2866C1.1326 12.0333 2.70594 11.1333 3.1126 10.8666C3.5126 10.6066 4.58594 9.86663 4.6926 9.79329C4.83927 9.69329 4.7326 9.61329 4.61927 9.44663C4.53927 9.33329 4.45927 9.41329 4.45927 9.41329C4.02594 9.69996 3.2326 10.3 3.12594 9.91996C2.99927 9.53996 3.8126 6.93329 4.25927 5.13996C4.3326 4.71329 4.5326 3.77996 3.75927 3.84663V3.84663Z" fill="#0A313E"/>
</svg>
